<svg width="85" height="19" viewBox="0 0 85 19" fill="none" xmlns="http://www.w3.org/2000/svg">
<path d="M0.155623 18.5V0.570336H7.92981C9.29555 0.570336 10.4424 0.754185 11.3704 1.12188C12.3043 1.48958 13.0076 2.00903 13.4803 2.68022C13.9589 3.35142 14.1982 4.14226 14.1982 5.05275C14.1982 5.71227 14.0523 6.31343 13.7605 6.85622C13.4745 7.39902 13.0718 7.85426 12.5523 8.22196C12.0329 8.58382 11.4259 8.83479 10.7313 8.97487V9.14996C11.5017 9.17914 12.2021 9.37466 12.8325 9.73653C13.4628 10.0926 13.9647 10.5857 14.3383 11.2161C14.7118 11.8406 14.8986 12.576 14.8986 13.4223C14.8986 14.4028 14.6418 15.2753 14.1282 16.0399C13.6204 16.8045 12.8967 17.4057 11.957 17.8434C11.0173 18.2811 9.89671 18.5 8.59517 18.5H0.155623ZM5.02325 14.6129H7.29947C8.11658 14.6129 8.72941 14.4612 9.13796 14.1577C9.54652 13.8483 9.75079 13.3931 9.75079 12.7919C9.75079 12.3717 9.65449 12.0157 9.46189 11.7238C9.26929 11.432 8.99497 11.2102 8.63895 11.0585C8.28876 10.9067 7.86561 10.8309 7.36951 10.8309H5.02325V14.6129ZM5.02325 7.81924H7.01932C7.44539 7.81924 7.82184 7.75212 8.14868 7.61788C8.47552 7.48365 8.72941 7.29104 8.91034 7.04007C9.09711 6.78327 9.19049 6.47102 9.19049 6.10332C9.19049 5.54885 8.99205 5.12571 8.59517 4.83388C8.19829 4.53622 7.69635 4.38739 7.08936 4.38739H5.02325V7.81924ZM16.183 18.5V0.570336H23.9222C25.2529 0.570336 26.4173 0.812549 27.4153 1.29698C28.4134 1.78141 29.1896 2.47886 29.7441 3.38936C30.2985 4.29985 30.5758 5.39127 30.5758 6.66362C30.5758 7.94765 30.2898 9.03031 29.7178 9.91162C29.1517 10.7929 28.355 11.4583 27.3278 11.9077C26.3064 12.3571 25.1128 12.5818 23.7471 12.5818H19.1246V8.79977H22.7666C23.3385 8.79977 23.8259 8.72973 24.2286 8.58966C24.6372 8.44375 24.9494 8.21321 25.1654 7.89804C25.3871 7.58287 25.498 7.17139 25.498 6.66362C25.498 6.15001 25.3871 5.7327 25.1654 5.4117C24.9494 5.08485 24.6372 4.84556 24.2286 4.69381C23.8259 4.53622 23.3385 4.45743 22.7666 4.45743H21.0506V18.5H16.183ZM26.6887 10.2706L31.1711 18.5H25.8832L21.5059 10.2706H26.6887ZM36.8679 18.5H31.6151L37.5333 0.570336H44.1869L50.105 18.5H44.8522L40.9301 5.508H40.79L36.8679 18.5ZM35.8874 11.4262H45.7627V15.0682H35.8874V11.4262ZM66.905 0.570336V18.5H62.8428L56.3644 9.07992H56.2593V18.5H51.3917V0.570336H55.5239L61.8973 9.95539H62.0374V0.570336H66.905ZM75.666 18.5H68.7673V0.570336H75.596C77.4403 0.570336 79.0337 0.929279 80.3761 1.64717C81.7243 2.35922 82.7632 3.38644 83.4927 4.72883C84.2281 6.06538 84.5958 7.66749 84.5958 9.53517C84.5958 11.4028 84.231 13.0079 83.5015 14.3503C82.7719 15.6868 81.7389 16.714 80.4023 17.4319C79.0658 18.144 77.487 18.5 75.666 18.5ZM73.6349 14.3678H75.4909C76.3781 14.3678 77.1339 14.2248 77.7584 13.9388C78.3887 13.6528 78.8673 13.1596 79.1942 12.4592C79.5268 11.7589 79.6932 10.7842 79.6932 9.53517C79.6932 8.28616 79.5239 7.31147 79.1854 6.61109C78.8527 5.91071 78.3625 5.41753 77.7146 5.13154C77.0726 4.84556 76.2847 4.70256 75.3508 4.70256H73.6349V14.3678Z" fill="black"/>
</svg>
